<svg width="32" height="32" viewBox="0 0 32 32" fill="none" xmlns="http://www.w3.org/2000/svg">
<path d="M21.4697 3.74081L20.9272 3.33276L28.251 26.6927L28.5187 25.891L21.4697 3.74081Z" fill="#EF702D"/>
<path d="M17.031 0.487374L16.2991 0L26.5105 31.9723L26.8318 31.0877L17.031 0.487374Z" fill="#EF702D"/>
<path d="M11.1511 3.84668L10.3791 4.42479L19.0661 32H20.0034L11.1511 3.84668Z" fill="#EF702D"/>
<path d="M9.7101 4.92163L8.87159 5.54348L17.2184 32H18.236L9.7101 4.92163Z" fill="#EF702D"/>
<path d="M8.26317 5.99976L7.42163 6.63096L15.3707 32H16.5222L8.26317 5.99976Z" fill="#EF702D"/>
<path d="M6.87365 7.02466L5.89893 7.74337L13.6033 32H14.7815L6.87365 7.02466Z" fill="#EF702D"/>
<path d="M2.59751 10.2175L1.44604 11.0745L8.08705 31.9999H9.50629L2.59751 10.2175Z" fill="#EF702D"/>
<path d="M1.17824 11.2681L0 12.125L6.29289 32H7.79247L1.17824 11.2681Z" fill="#EF702D"/>
<path d="M4.01676 9.16724L2.89306 9.98391L9.90797 32H11.1933L4.01676 9.16724Z" fill="#EF702D"/>
<path d="M5.46912 8.06202L4.4187 8.84634L11.7289 31.9999H13.041L5.46912 8.06202Z" fill="#EF702D"/>
<path d="M12.5253 2.82495L11.8533 3.32805L20.887 32H21.7706L12.5253 2.82495Z" fill="#EF702D"/>
<path d="M13.9663 1.7561L13.3215 2.2342L22.7615 31.9999H23.5113L13.9663 1.7561Z" fill="#EF702D"/>
<path d="M15.3951 0.696777L14.823 1.12801L24.5557 31.9999H25.2519L15.3951 0.696777Z" fill="#EF702D"/>
<path d="M19.2902 2.11507L18.6492 1.64916L27.3674 29.4569L27.6887 28.4894L19.2902 2.11507Z" fill="#EF702D"/>
<path d="M23.8013 5.47133L23.2905 5.09009L29.1616 23.8178L29.4294 23.0162L23.8013 5.47133Z" fill="#EF702D"/>
<path d="M26.1267 7.19277L25.7459 6.91577L30.1255 20.8323L30.3129 20.2518L26.1267 7.19277Z" fill="#EF702D"/>
<path d="M28.3265 8.86977L28.0322 8.65234L30.9555 18.0958L31.1162 17.5706L28.3265 8.86977Z" fill="#EF702D"/>
<path d="M30.5715 10.5377L30.283 10.3203L31.8929 15.1933L32 14.8616L30.5715 10.5377Z" fill="#EF702D"/>
</svg>
