<svg width="36" height="36" viewBox="0 0 36 36" fill="none" xmlns="http://www.w3.org/2000/svg">
<path d="M18.0015 13.5C15.5154 13.5 13.5015 15.5147 13.5015 18C13.5015 20.486 15.5161 22.5 18.0015 22.5C20.4874 22.5 22.5015 20.4853 22.5015 18C22.5015 15.514 20.4868 13.5 18.0015 13.5ZM18.0015 10.5C22.1421 10.5 25.5015 13.8556 25.5015 18C25.5015 22.1408 22.1458 25.5 18.0015 25.5C13.8608 25.5 10.5015 22.1444 10.5015 18C10.5015 13.8593 13.8571 10.5 18.0015 10.5ZM27.7515 10.1237C27.7515 11.1589 26.9103 11.9988 25.8765 11.9988C24.8413 11.9988 24.0015 11.1576 24.0015 10.1237C24.0015 9.08985 24.8425 8.25 25.8765 8.25C26.9089 8.24869 27.7515 9.08985 27.7515 10.1237ZM18.0015 6C14.2897 6 13.6848 6.00982 11.9584 6.0867C10.7822 6.14191 9.99379 6.3001 9.26124 6.5845C8.61024 6.83698 8.14063 7.13847 7.64028 7.63882C7.138 8.1411 6.83705 8.60945 6.58559 9.26075C6.30053 9.99498 6.14239 10.7822 6.08817 11.9567C6.01054 13.6128 6.00146 14.1916 6.00146 18C6.00146 21.7118 6.01129 22.3167 6.08815 24.0429C6.1434 25.2186 6.30179 26.0082 6.5855 26.739C6.83864 27.3909 7.14075 27.8616 7.63869 28.3596C8.14294 28.8632 8.61268 29.1651 9.2578 29.4141C9.99928 29.7008 10.7872 29.8591 11.9582 29.9133C13.6143 29.9909 14.193 30 18.0015 30C21.7132 30 22.3182 29.9901 24.0444 29.9133C25.2175 29.8582 26.0077 29.6994 26.7405 29.4159C27.3906 29.1634 27.8628 28.8603 28.3611 28.3628C28.8654 27.8577 29.1667 27.3891 29.416 26.7425C29.7019 26.0037 29.8606 25.2147 29.9148 24.0434C29.9923 22.3872 30.0015 21.8083 30.0015 18C30.0015 14.2883 29.9916 13.6833 29.9148 11.9571C29.8596 10.7836 29.7007 9.99224 29.4169 9.25977C29.1651 8.61057 28.8625 8.13952 28.3626 7.63882C27.8595 7.13572 27.3924 6.8354 26.7406 6.58413C26.007 6.29931 25.2186 6.14094 24.0447 6.08671C22.3887 6.00907 21.8098 6 18.0015 6ZM18.0015 3C22.0764 3 22.5852 3.015 24.1852 3.09C25.7814 3.16375 26.8702 3.41625 27.8265 3.7875C28.8151 4.16876 29.6502 4.68375 30.4839 5.51749C31.3164 6.35125 31.8315 7.18875 32.214 8.175C32.5839 9.13 32.8365 10.22 32.9115 11.8162C32.9827 13.4163 33.0015 13.925 33.0015 18C33.0015 22.0751 32.9865 22.5837 32.9115 24.1838C32.8377 25.78 32.5839 26.8687 32.214 27.825C31.8327 28.8138 31.3164 29.6487 30.4839 30.4825C29.6502 31.315 28.8114 31.83 27.8265 32.2125C26.8702 32.5826 25.7814 32.835 24.1852 32.91C22.5852 32.9813 22.0764 33 18.0015 33C13.9265 33 13.4177 32.985 11.8177 32.91C10.2215 32.8362 9.13396 32.5826 8.17647 32.2125C7.18896 31.8312 6.35271 31.315 5.51896 30.4825C4.68522 29.6487 4.17146 28.81 3.78896 27.825C3.41771 26.8687 3.16647 25.78 3.09147 24.1838C3.02022 22.5837 3.00146 22.0751 3.00146 18C3.00146 13.925 3.01647 13.4163 3.09147 11.8162C3.16521 10.2188 3.41771 9.13125 3.78896 8.175C4.1702 7.1875 4.68522 6.35125 5.51896 5.51749C6.35271 4.68375 7.19022 4.17 8.17647 3.7875C9.13272 3.41625 10.2202 3.165 11.8177 3.09C13.4177 3.01875 13.9265 3 18.0015 3Z" fill="#FC935B"/>
</svg>
