<svg width="168" height="168" viewBox="0 0 168 168" fill="none" xmlns="http://www.w3.org/2000/svg">
<path d="M112.715 19.6403L109.867 17.498L148.317 140.136L149.722 135.928L112.715 19.6403Z" fill="#EF702D"/>
<path d="M89.4135 2.55869L85.5708 0L139.181 167.853L140.868 163.209L89.4135 2.55869Z" fill="#EF702D"/>
<path d="M58.5425 20.1938L54.4899 23.2289L100.097 167.997H105.017L58.5425 20.1938Z" fill="#EF702D"/>
<path d="M50.9774 25.8398L46.5752 29.1045L90.3959 168H95.7381L50.9774 25.8398Z" fill="#EF702D"/>
<path d="M43.3822 31.5L38.9641 34.8138L80.6968 168H86.742L43.3822 31.5Z" fill="#EF702D"/>
<path d="M36.0861 36.8794L30.9688 40.6526L71.4166 167.999H77.6024L36.0861 36.8794Z" fill="#EF702D"/>
<path d="M13.6366 53.6421L7.59143 58.1409L42.4567 167.998H49.9077L13.6366 53.6421Z" fill="#EF702D"/>
<path d="M6.18577 59.1567L0 63.6555L33.0376 167.998H40.9104L6.18577 59.1567Z" fill="#EF702D"/>
<path d="M21.0886 48.127L15.1892 52.4144L52.0174 167.998H58.7655L21.0886 48.127Z" fill="#EF702D"/>
<path d="M28.7126 42.3262L23.1979 46.4439L61.5762 167.999H68.4649L28.7126 42.3262Z" fill="#EF702D"/>
<path d="M65.7578 14.832L62.2297 17.4733L109.657 168H114.296L65.7578 14.832Z" fill="#EF702D"/>
<path d="M73.3225 9.2207L69.9375 11.7307L119.497 167.999H123.434L73.3225 9.2207Z" fill="#EF702D"/>
<path d="M80.8245 3.65674L77.8208 5.92068L128.917 167.997H132.573L80.8245 3.65674Z" fill="#EF702D"/>
<path d="M101.273 11.1032L97.9079 8.65717L143.679 154.647L145.366 149.567L101.273 11.1032Z" fill="#EF702D"/>
<path d="M124.956 28.7246L122.274 26.7231L153.097 125.043L154.503 120.834L124.956 28.7246Z" fill="#EF702D"/>
<path d="M137.166 37.7609L135.166 36.3066L158.159 109.368L159.143 106.32L137.166 37.7609Z" fill="#EF702D"/>
<path d="M148.714 46.5643L147.169 45.4229L162.516 95.0005L163.36 92.2432L148.714 46.5643Z" fill="#EF702D"/>
<path d="M160.5 55.3231L158.986 54.1816L167.438 79.7648L168 78.0233L160.5 55.3231Z" fill="#EF702D"/>
</svg>
