<svg width="36" height="36" viewBox="0 0 36 36" fill="none" xmlns="http://www.w3.org/2000/svg">
<path d="M29.4103 10.4922C29.296 10.0454 28.9728 9.70832 28.6026 9.60432C27.9448 9.42093 24.7515 9 18.0015 9C11.2515 9 8.05877 9.4211 7.39837 9.60485C7.03163 9.70685 6.70845 10.0439 6.59265 10.4922C6.42945 11.1288 6.00146 13.7939 6.00146 18C6.00146 22.206 6.42945 24.8712 6.5931 25.5096C6.70689 25.9546 7.03013 26.2917 7.39876 26.3952C8.05877 26.5789 11.2515 27 18.0015 27C24.7515 27 27.9448 26.5791 28.6045 26.3952C28.9713 26.2932 29.2945 25.9562 29.4103 25.5078C29.5735 24.8712 30.0015 22.2 30.0015 18C30.0015 13.8 29.5735 11.1288 29.4103 10.4922ZM32.3163 9.74727C33.0015 12.42 33.0015 18 33.0015 18C33.0015 18 33.0015 23.58 32.3163 26.2527C31.9345 27.731 30.8205 28.8927 29.4084 29.2854C26.8456 30 18.0015 30 18.0015 30C18.0015 30 9.16255 30 6.59455 29.2854C5.17718 28.8873 4.06318 27.7254 3.68661 26.2527C3.00147 23.58 3.00146 18 3.00146 18C3.00146 18 3.00147 12.42 3.68661 9.74727C4.0684 8.26909 5.18242 7.10727 6.59455 6.71454C9.16255 6 18.0015 6 18.0015 6C18.0015 6 26.8456 6 29.4084 6.71454C30.8257 7.11273 31.9398 8.27454 32.3163 9.74727ZM15.0015 23.25V12.75L24.0015 18L15.0015 23.25Z" fill="#FC935B"/>
</svg>
