<svg width="23" height="24" viewBox="0 0 23 24" fill="none" xmlns="http://www.w3.org/2000/svg">
<path d="M11.7705 20.8995L16.3511 15.9497C18.8809 13.2161 18.8809 8.78392 16.3511 6.05025C13.8213 3.31658 9.71963 3.31658 7.18981 6.05025C4.65999 8.78392 4.65999 13.2161 7.18981 15.9497L11.7705 20.8995ZM11.7705 23.7279L5.88106 17.364C2.62843 13.8492 2.62843 8.15076 5.88106 4.63604C9.13368 1.12132 14.4072 1.12132 17.6599 4.63604C20.9125 8.15076 20.9125 13.8492 17.6599 17.364L11.7705 23.7279ZM11.7705 13C12.7927 13 13.6213 12.1046 13.6213 11C13.6213 9.89543 12.7927 9 11.7705 9C10.7482 9 9.9196 9.89543 9.9196 11C9.9196 12.1046 10.7482 13 11.7705 13ZM11.7705 15C9.72605 15 8.06874 13.2091 8.06874 11C8.06874 8.79086 9.72605 7 11.7705 7C13.8148 7 15.4722 8.79086 15.4722 11C15.4722 13.2091 13.8148 15 11.7705 15Z" fill="white"/>
</svg>
