<svg width="36" height="36" viewBox="0 0 36 36" fill="none" xmlns="http://www.w3.org/2000/svg">
<path d="M23.667 12.3118C22.9579 12.2566 22.1961 12.4264 21.0295 12.8709C21.1275 12.8336 19.9162 13.3075 19.5766 13.4261C18.8241 13.6888 18.2046 13.8329 17.5101 13.8329C16.8226 13.8329 16.1887 13.6956 15.4617 13.4502C15.2286 13.3716 14.9942 13.2845 14.7042 13.1713C14.5799 13.1227 14.13 12.9441 14.0316 12.9056C13.0594 12.5249 12.5123 12.3814 12.0583 12.3927C10.3294 12.4147 8.69335 13.4131 7.74369 15.0662C5.80555 18.4312 6.87874 24.5141 9.71188 28.6124C11.2203 30.7783 12.0459 31.5524 12.378 31.5418C12.7114 31.5274 12.9567 31.4569 13.5535 31.2038C13.6723 31.1533 13.6723 31.1533 13.803 31.0975C15.3115 30.4547 16.3677 30.1709 17.9601 30.1709C19.4916 30.1709 20.5144 30.4495 21.9624 31.0738C22.0953 31.1312 22.0953 31.1312 22.2145 31.1825C22.8111 31.4381 23.0263 31.4942 23.4024 31.4852C23.9386 31.4768 24.6004 30.8588 26.0686 28.7042C26.4706 28.117 26.826 27.4999 27.1342 26.8751C26.9359 26.7115 26.739 26.5375 26.5462 26.3539C24.6129 24.5111 23.4171 22.0267 23.3842 18.9586C23.3634 16.5278 24.1585 14.4222 25.4985 12.6869C24.9439 12.4712 24.3324 12.357 23.667 12.3118ZM23.9001 9.32091C24.9621 9.39291 28.0041 9.71691 29.9841 12.6149C29.8221 12.7049 26.3481 14.7209 26.3841 18.9329C26.4381 23.9729 30.7941 25.6469 30.8481 25.6649C30.8121 25.7909 30.1461 28.0589 28.5441 30.3989C27.1581 32.4329 25.7181 34.4489 23.4501 34.4849C21.2181 34.5389 20.4981 33.1709 17.9601 33.1709C15.4041 33.1709 14.6121 34.4489 12.5061 34.5389C10.3101 34.6109 8.65407 32.3429 7.25007 30.3269C4.38807 26.1869 2.21007 18.6629 5.14407 13.5689C6.60207 11.0309 9.19407 9.42891 12.0201 9.39291C14.1621 9.33891 16.1961 10.8329 17.5101 10.8329C18.8061 10.8329 21.1281 9.10491 23.9001 9.32091ZM22.1901 6.58491C21.0201 7.98891 19.1121 9.08691 17.2581 8.94291C17.0061 7.03491 17.9421 5.03691 19.0221 3.79491C20.2281 2.39091 22.2441 1.3469 23.9181 1.2749C24.1341 3.21891 23.3601 5.18091 22.1901 6.58491Z" fill="#FC935B"/>
</svg>
