<svg width="36" height="36" viewBox="0 0 36 36" fill="none" xmlns="http://www.w3.org/2000/svg">
<path d="M18.0015 3C26.3265 3 33.0015 9.75 33.0015 18C33.0015 26.25 26.2515 33 18.0015 33C9.75147 33 3.00146 26.25 3.00146 18C3.00146 9.75 9.75147 3 18.0015 3ZM18.0015 6C11.4083 6 6.00146 11.4069 6.00146 18C6.00146 24.5931 11.4083 30 18.0015 30C24.5946 30 30.0015 24.5931 30.0015 18C30.0015 11.3786 24.6414 6 18.0015 6ZM23.6265 24.975C20.1015 22.8 15.6765 22.3488 10.4252 23.5488C9.90271 23.7012 9.45147 23.325 9.30147 22.875C9.15147 22.3488 9.52646 21.9 9.97647 21.75C15.6765 20.4738 20.6265 21 24.5265 23.4C25.0515 23.625 25.1251 24.2238 24.9027 24.675C24.6027 25.1238 24.0777 25.275 23.6265 24.975ZM25.1251 20.925C21.0765 18.45 14.9265 17.7 10.2015 19.2C9.60271 19.35 8.92646 19.05 8.77646 18.45C8.62646 17.85 8.92646 17.1738 9.52646 17.0238C15.0015 15.375 21.7515 16.2012 26.4015 19.05C26.8527 19.2762 27.0765 20.025 26.7027 20.55C26.3265 21.075 25.6515 21.3 25.1251 20.925ZM9.45147 14.6262C8.70147 14.85 7.95147 14.4 7.72647 13.725C7.50146 12.9738 7.95146 12.225 8.62646 11.9988C13.9515 10.4238 22.7265 10.7238 28.2777 14.025C28.9515 14.4 29.1765 15.3 28.8015 15.975C28.4277 16.5012 27.5265 16.7238 26.8527 16.35C22.0515 13.5 14.0265 13.2 9.45147 14.6262Z" fill="#FC935B"/>
</svg>
