<svg width="36" height="36" viewBox="0 0 36 36" fill="none" xmlns="http://www.w3.org/2000/svg">
<path d="M16.5006 3V12.6209C15.8921 12.5086 15.2652 12.45 14.6256 12.45C8.95086 12.45 4.35059 17.0502 4.35059 22.725C4.35059 28.3998 8.95086 33 14.6256 33C20.3003 33 24.9006 28.3998 24.9006 22.725V17.1204C26.4549 17.7808 28.1493 18.15 30.0007 18.15H31.5007V9.75H30.0007C27.1449 9.75 24.9006 7.44388 24.9006 4.5V3H16.5006ZM19.5006 6H22.032C22.6227 9.33013 25.1509 11.9941 28.5007 12.6136V15.0423C26.9436 14.814 25.538 14.2297 24.2351 13.3575L21.9006 11.7949V22.725C21.9006 26.7429 18.6435 30 14.6256 30C10.6077 30 7.35059 26.7429 7.35059 22.725C7.35059 18.7071 10.6077 15.45 14.6256 15.45C14.7515 15.45 14.8765 15.4531 15.0008 15.4594V17.8643C14.8769 17.8548 14.7518 17.85 14.6256 17.85C11.9332 17.85 9.75059 20.0326 9.75059 22.725C9.75059 25.4173 11.9332 27.6 14.6256 27.6C17.318 27.6 19.5006 25.4173 19.5006 22.725C19.5006 17.1501 19.4988 11.575 19.5006 6ZM12.7506 22.725C12.7506 21.6894 13.59 20.85 14.6256 20.85C15.6611 20.85 16.5006 21.6894 16.5006 22.725C16.5006 23.7606 15.6611 24.6 14.6256 24.6C13.59 24.6 12.7506 23.7606 12.7506 22.725Z" fill="#FC935B"/>
</svg>
