<svg width="56" height="56" viewBox="0 0 56 56" fill="none" xmlns="http://www.w3.org/2000/svg">
<path d="M37.5717 6.54635L36.6224 5.83228L49.4389 46.7118L49.9075 45.309L37.5717 6.54635Z" fill="#EF702D"/>
<path d="M29.8046 0.852899L28.5237 0L46.3937 55.9511L46.956 54.4032L29.8046 0.852899Z" fill="#EF702D"/>
<path d="M19.5142 6.7312L18.1633 7.74289L33.3655 55.9992H35.0057L19.5142 6.7312Z" fill="#EF702D"/>
<path d="M16.9926 8.61304L15.5252 9.70126L30.132 55.9998H31.9128L16.9926 8.61304Z" fill="#EF702D"/>
<path d="M14.4607 10.4998L12.988 11.6043L26.8989 55.9999H28.914L14.4607 10.4998Z" fill="#EF702D"/>
<path d="M12.0288 12.2932L10.323 13.5509L23.8056 55.9998H25.8676L12.0288 12.2932Z" fill="#EF702D"/>
<path d="M4.54546 17.8804L2.5304 19.38L14.1521 55.9993H16.6358L4.54546 17.8804Z" fill="#EF702D"/>
<path d="M2.06192 19.719L0 21.2186L11.0125 55.9997H13.6368L2.06192 19.719Z" fill="#EF702D"/>
<path d="M7.02945 16.0425L5.06297 17.4716L17.3391 55.9996H19.5884L7.02945 16.0425Z" fill="#EF702D"/>
<path d="M9.57078 14.1089L7.73254 15.4815L20.5253 55.9999H22.8216L9.57078 14.1089Z" fill="#EF702D"/>
<path d="M21.9193 4.94385L20.7433 5.82426L36.5522 55.9999H38.0987L21.9193 4.94385Z" fill="#EF702D"/>
<path d="M24.4408 3.07349L23.3125 3.91015L39.8325 55.9998H41.1446L24.4408 3.07349Z" fill="#EF702D"/>
<path d="M26.9415 1.21924L25.9403 1.97389L42.9725 55.9993H44.1909L26.9415 1.21924Z" fill="#EF702D"/>
<path d="M33.7576 3.70131L32.6359 2.88597L47.8928 51.5492L48.4551 49.8562L33.7576 3.70131Z" fill="#EF702D"/>
<path d="M41.652 9.57464L40.7582 8.90747L51.0326 41.6808L51.5012 40.278L41.652 9.57464Z" fill="#EF702D"/>
<path d="M45.7219 12.587L45.0554 12.1023L52.7197 36.4561L53.0478 35.4402L45.7219 12.587Z" fill="#EF702D"/>
<path d="M49.5713 15.5219L49.0563 15.1414L54.172 31.6673L54.4532 30.7482L49.5713 15.5219Z" fill="#EF702D"/>
<path d="M53.5002 18.441L52.9952 18.0605L55.8127 26.5883L56.0001 26.0078L53.5002 18.441Z" fill="#EF702D"/>
</svg>
